<?xml version="1.0" encoding="utf-8"?>
<!-- Generator: Adobe Illustrator 16.0.0, SVG Export Plug-In . SVG Version: 6.00 Build 0)  -->
<!DOCTYPE svg PUBLIC "-//W3C//DTD SVG 1.1//EN" "http://www.w3.org/Graphics/SVG/1.1/DTD/svg11.dtd">
<svg version="1.1" id="Layer_1" xmlns="http://www.w3.org/2000/svg" xmlns:xlink="http://www.w3.org/1999/xlink" x="0px" y="0px"
	 width="512px" height="512px" viewBox="0 0 512 512" enable-background="new 0 0 512 512" xml:space="preserve">
<path fill="#FEFEFE" d="M257.021,513c-83.812,0-167.625-0.025-251.438,0.085c-3.595,0.005-4.692-0.563-4.689-4.501
	C1.018,340.792,1.016,173,0.895,5.207C0.892,1.486,1.799,0.91,5.291,0.912c167.792,0.101,335.585,0.099,503.377,0.011
	c3.374-0.002,4.449,0.405,4.446,4.243c-0.133,167.959-0.129,335.918-0.015,503.877c0.002,3.509-0.809,4.051-4.141,4.047
	C424.979,512.976,341,513,257.021,513z M291.933,364.362c-0.238,6.837,1.483,9.582,6.997,10.545
	c9.641,1.683,15.714-2.696,17.086-12.289c0.141-0.982,0.443-1.941,0.679-2.91c4.669-19.273,12.813-37.039,23.485-53.674
	c10.268-16.003,22.43-30.563,34.506-45.204c22.449-27.216,45.165-54.216,66.786-82.107c12.14-15.662,24.08-31.459,33.942-48.695
	c6.642-11.607,5.979-19.297-2.249-29.896c-1.021-1.315-2.075-2.604-3.104-3.912c-14.57-18.533-45.579-25.355-66.684-11.06
	c-11.875,8.044-20.618,18.778-29.134,29.849c-13.515,17.569-24.896,36.579-36.58,55.369c-2.046,3.291-3.052,3.433-5.523,0.259
	c-11.049-14.183-22.227-28.303-34.811-41.161c-16.024-16.372-34.021-29.926-56.738-35.682c-21.477-5.442-43.721,5.154-48.846,29.039
	c-4.953,23.082-0.058,44.613,11.137,64.885c9.259,16.768,22.34,30.577,35.495,44.286c11.52,12.005,23.769,23.375,33.007,37.392
	c14.009,21.253,23.384,44.05,22.551,70.038C293.676,347.563,292.654,355.668,291.933,364.362z M57.047,191.699
	c0.027,11.998,0.652,23.967,2.137,35.874c4.683,37.547,17.589,72.413,35.805,105.262c14.258,25.713,33.727,47.469,55.444,67.164
	c28.812,26.129,61.55,45.366,99.196,55.865c7.807,2.178,14.937,1.405,21.891-3.191c13.631-9.011,25.106-20.249,35.24-32.928
	c5.445-6.812,5.036-10.168-1.404-16.202c-13.256-12.421-27.774-23.335-41.741-34.906c-14.528-12.036-14.806-12.288-30.946-3.169
	c-11.503,6.499-22.514,5.819-33.034-0.894c-21.562-13.758-41.678-29.257-56.759-50.429c-14.57-20.455-23.718-42.597-23.379-68.214
	c0.099-7.472,2.853-11.702,9.908-14.001c13.292-4.331,26.408-9.202,39.668-13.636c4.729-1.581,6.535-4.158,5.87-9.287
	c-3.662-28.252-8.444-56.283-15.662-83.862c-1.985-7.585-8.098-11.674-15.8-10.391c-26.267,4.376-50.144,14.476-71.338,30.625
	c-7.686,5.856-12.386,13.716-14.047,23.403C56.79,176.404,57.052,184.045,57.047,191.699z"/>
<path fill-rule="evenodd" clip-rule="evenodd" fill="#F1483E" d="M291.933,364.362c0.722-8.694,1.743-16.799,2.003-24.929
	c0.833-25.988-8.542-48.785-22.551-70.038c-9.238-14.017-21.487-25.387-33.007-37.392c-13.154-13.709-26.235-27.519-35.495-44.286
	c-11.195-20.271-16.089-41.803-11.137-64.885c5.125-23.885,27.369-34.481,48.846-29.039c22.716,5.756,40.713,19.31,56.738,35.682
	c12.584,12.858,23.762,26.979,34.811,41.161c2.472,3.174,3.478,3.032,5.523-0.259c11.685-18.79,23.065-37.8,36.58-55.369
	c8.516-11.07,17.259-21.805,29.134-29.849c21.104-14.296,52.113-7.474,66.684,11.06c1.028,1.309,2.083,2.597,3.104,3.912
	c8.229,10.599,8.891,18.288,2.249,29.896c-9.862,17.236-21.803,33.033-33.942,48.695c-21.621,27.892-44.337,54.892-66.786,82.107
	c-12.076,14.641-24.238,29.201-34.506,45.204c-10.672,16.635-18.816,34.4-23.485,53.674c-0.235,0.969-0.538,1.928-0.679,2.91
	c-1.372,9.593-7.445,13.972-17.086,12.289C293.416,373.944,291.694,371.199,291.933,364.362z"/>
<path fill-rule="evenodd" clip-rule="evenodd" fill="#1AAC53" d="M57.047,191.699c0.005-7.654-0.257-15.295,1.05-22.916
	c1.661-9.688,6.361-17.547,14.047-23.403c21.194-16.149,45.071-26.249,71.338-30.625c7.702-1.283,13.814,2.806,15.8,10.391
	c7.218,27.579,12,55.61,15.662,83.862c0.665,5.129-1.141,7.706-5.87,9.287c-13.26,4.434-26.376,9.305-39.668,13.636
	c-7.056,2.299-9.81,6.529-9.908,14.001c-0.338,25.617,8.809,47.759,23.379,68.214c15.081,21.172,35.197,36.671,56.759,50.429
	c10.52,6.713,21.53,7.393,33.034,0.894c16.141-9.119,16.418-8.867,30.946,3.169c13.967,11.571,28.485,22.485,41.741,34.906
	c6.44,6.034,6.85,9.39,1.404,16.202c-10.134,12.679-21.609,23.917-35.24,32.928c-6.954,4.597-14.084,5.369-21.891,3.191
	c-37.646-10.499-70.385-29.736-99.196-55.865c-21.717-19.695-41.186-41.451-55.444-67.164
	c-18.216-32.849-31.123-67.715-35.805-105.262C57.699,215.666,57.074,203.697,57.047,191.699z"/>
</svg>
